<?xml version="1.0" standalone="no"?><!DOCTYPE svg PUBLIC "-//W3C//DTD SVG 1.1//EN" "http://www.w3.org/Graphics/SVG/1.1/DTD/svg11.dtd"><svg t="1578383715821" class="icon" viewBox="0 0 1024 1024" version="1.1" xmlns="http://www.w3.org/2000/svg" p-id="3180" width="400" height="400" xmlns:xlink="http://www.w3.org/1999/xlink"><defs><style type="text/css"></style></defs><path d="M512.021333 889.898667a32 32 0 0 1-32-32V165.184a32 32 0 1 1 64 0v692.714667a32 32 0 0 1-32 32zM314.816 732.181333a32 32 0 0 1-32-32v-396.373333a32 32 0 1 1 64 0v396.373333a32 32 0 0 1-32 32zM720.021333 732.181333a32 32 0 0 1-32-32v-396.373333a32 32 0 1 1 64 0v396.373333a32 32 0 0 1-32 32zM117.632 608.661333a32 32 0 0 1-32-32V469.12a32 32 0 1 1 64 0v107.541333a32 32 0 0 1-32 32zM911.018667 608.661333a32 32 0 0 1-32-32V469.12a32 32 0 1 1 64 0v107.541333a32 32 0 0 1-32 32z" p-id="3181" fill="#1296db"></path></svg>