<?xml version="1.0" standalone="no"?><!DOCTYPE svg PUBLIC "-//W3C//DTD SVG 1.1//EN" "http://www.w3.org/Graphics/SVG/1.1/DTD/svg11.dtd"><svg t="1578383675084" class="icon" viewBox="0 0 1024 1024" version="1.1" xmlns="http://www.w3.org/2000/svg" p-id="1136" width="400" height="400" xmlns:xlink="http://www.w3.org/1999/xlink"><defs><style type="text/css"></style></defs><path d="M511.998 0C229.23 0 0 229.228 0 512c0 282.77 229.23 512 511.998 512 282.776 0 512.006-229.23 512.006-512 0-282.772-229.23-512-512.006-512z m0 993.808C245.904 993.808 30.192 778.094 30.192 512c0-266.096 215.712-481.808 481.806-481.808 266.104 0 481.814 215.712 481.814 481.808 0 266.094-215.71 481.808-481.814 481.808z" fill="#666666" p-id="1137"></path><path d="M802.364 687.064c0 31.662-25.666 57.328-57.328 57.328H278.966c-31.66 0-57.328-25.666-57.328-57.328V336.934c0-31.66 25.668-57.328 57.328-57.328h466.068c31.662 0 57.328 25.668 57.328 57.328v350.13z" fill="#666666" p-id="1138"></path><path d="M512 321.398c-6.606 0-11.962 6.906-11.962 15.422v350.36c0 8.52 5.356 15.422 11.962 15.422s11.966-6.902 11.966-15.422V336.82c-0.002-8.516-5.36-15.422-11.966-15.422zM586.122 385.2c-6.606 0-11.96 6.902-11.96 15.418v222.766c0 8.516 5.356 15.422 11.96 15.422s11.964-6.906 11.964-15.422V400.618c0-8.516-5.36-15.418-11.964-15.418zM660.246 433.05c-6.61 0-11.964 6.902-11.964 15.418v127.066c0 8.516 5.356 15.418 11.964 15.418 6.602 0 11.96-6.902 11.96-15.418v-127.066c0.002-8.514-5.358-15.418-11.96-15.418zM437.878 385.2c-6.608 0-11.962 6.902-11.962 15.418v222.766c0 8.516 5.354 15.422 11.962 15.422 6.604 0 11.962-6.906 11.962-15.422V400.618c0-8.516-5.358-15.418-11.962-15.418zM363.756 433.05c-6.608 0-11.964 6.902-11.964 15.418v127.066c0 8.516 5.356 15.418 11.964 15.418 6.604 0 11.962-6.902 11.962-15.418v-127.066c0-8.514-5.358-15.418-11.962-15.418zM289.632 480.898c-6.608 0-11.962 6.902-11.962 15.418v31.368c0 8.516 5.354 15.422 11.962 15.422 6.604 0 11.962-6.906 11.962-15.422v-31.368c0.002-8.516-5.356-15.418-11.962-15.418zM734.368 480.898c-6.606 0-11.96 6.902-11.96 15.418v31.368c0 8.516 5.356 15.422 11.96 15.422s11.964-6.906 11.964-15.422v-31.368c0-8.516-5.36-15.418-11.964-15.418z" fill="#FFFFFF" p-id="1139"></path></svg>