<?xml version="1.0" standalone="no"?><!DOCTYPE svg PUBLIC "-//W3C//DTD SVG 1.1//EN" "http://www.w3.org/Graphics/SVG/1.1/DTD/svg11.dtd"><svg t="1578383889172" class="icon" viewBox="0 0 1024 1024" version="1.1" xmlns="http://www.w3.org/2000/svg" p-id="10326" width="400" height="400" xmlns:xlink="http://www.w3.org/1999/xlink"><defs><style type="text/css"></style></defs><path d="M880.19456 585.54752h-43.17184l-110.80832-156.22912a11.47264 11.47264 0 0 0-9.35296-4.83072h-99.47776v-30.3744c0-35.66336-25.71264-64.6784-57.31968-64.6784-31.60192 0-57.30944 29.01504-57.30944 64.6784v30.3744h-84.54912a11.4624 11.4624 0 0 0-8.96768 4.32128l-124.83968 156.73856h-25.8368c-0.73856 0-1.472 0.0704-2.19648 0.21248C117.90848 612.79744 123.63136 787.70048 123.70688 789.46432a11.46368 11.46368 0 0 0 11.45216 10.98112h65.63584c-0.04736 1.20064-0.18176 2.37568-0.18176 3.58784 0 50.31168 41.1392 91.24224 91.7056 91.24224 50.56512 0 91.7056-40.93184 91.7056-91.24224 0-1.21088-0.1344-2.3872-0.18176-3.58784h281.344c-0.04736 1.20064-0.18176 2.37568-0.18176 3.58784 0 50.31168 41.1392 91.24224 91.70432 91.24224 50.5664 0 91.7056-40.93184 91.7056-91.24224 0-1.21088-0.13312-2.3872-0.1856-3.58784h31.96672a11.46368 11.46368 0 0 0 11.4624-11.4624V597.0112c-0.00128-6.33088-5.13408-11.46368-11.46368-11.46368z m-71.28192 0H571.38432c0.06144-0.47488 0.14464-0.94592 0.14464-1.43872V448.42112c0-0.34432-0.07296-0.672-0.09984-1.00736h139.50976l97.97376 138.13376zM525.67936 394.11328c0-23.02336 15.424-41.7536 34.38464-41.7536 18.96448 0 34.39488 18.73024 34.39488 41.7536v30.3744h-68.77952v-30.3744z m-101.94944 53.30048h124.97408c-0.02816 0.33536-0.10112 0.66304-0.10112 1.00736v135.68768c0 0.4928 0.0832 0.96384 0.14592 1.43872H313.70752l110.0224-138.13376zM292.31872 872.35072c-37.92384 0-68.77824-30.64704-68.77824-68.31744 0-4.416 0.45824-8.72064 1.27104-12.90624 0.28288-1.4784 0.66304-2.9184 1.04064-4.35712 0.17024-0.6528 0.31616-1.312 0.50688-1.95328 0.34944-1.19552 0.76672-2.35648 1.18016-3.51744 0.3136-0.88064 0.61824-1.76384 0.96896-2.62784 0.39552-0.98048 0.82816-1.94048 1.26464-2.89792a70.272 70.272 0 0 1 1.472-3.0272c0.41728-0.8064 0.85376-1.6 1.30176-2.38976a72.8448 72.8448 0 0 1 1.99808-3.26272c0.42496-0.65536 0.84864-1.30944 1.29536-1.94688a68.02944 68.02944 0 0 1 2.57792-3.42656c0.4032-0.50688 0.78848-1.024 1.20576-1.5168a70.3616 70.3616 0 0 1 3.37792-3.69152c0.29184-0.29952 0.56192-0.61568 0.85632-0.90624a68.99584 68.99584 0 0 1 9.71776-7.97952c0.58752-0.40064 1.2032-0.7552 1.8048-1.13536a68.38656 68.38656 0 0 1 3.48416-2.1056c0.77312-0.43136 1.57056-0.81792 2.35904-1.21728a66.99392 66.99392 0 0 1 3.23584-1.55008c0.8704-0.38656 1.75488-0.74496 2.64448-1.0944 1.0752-0.4224 2.1632-0.81664 3.26272-1.18656 0.9152-0.3072 1.8368-0.60416 2.7648-0.87424a68.26496 68.26496 0 0 1 3.49824-0.89472c0.90112-0.20992 1.79712-0.43008 2.70976-0.60544 1.344-0.256 2.71232-0.44416 4.0832-0.61952 0.77312-0.10112 1.53344-0.23296 2.31424-0.3072a69.8944 69.8944 0 0 1 6.58304-0.33152c2.22208 0 4.41344 0.12672 6.58304 0.33152 0.7808 0.07552 1.54496 0.20608 2.32064 0.3072 1.36832 0.1792 2.73408 0.36352 4.07424 0.61952 0.9152 0.17536 1.81632 0.39552 2.72 0.60544 1.16992 0.2752 2.33344 0.56064 3.4816 0.89216 0.93696 0.27264 1.86112 0.56832 2.78528 0.88064 1.09184 0.36608 2.16832 0.76032 3.23456 1.1776 0.89856 0.352 1.79328 0.7168 2.6752 1.10464a70.144 70.144 0 0 1 3.18976 1.53088c0.8064 0.40576 1.61536 0.8 2.40128 1.24032a66.40384 66.40384 0 0 1 3.42016 2.06464c0.62208 0.39168 1.26208 0.7616 1.87008 1.17248a69.34016 69.34016 0 0 1 9.69088 7.95904c0.32128 0.32 0.61568 0.66432 0.93184 0.98688 1.1392 1.16992 2.25024 2.36544 3.3024 3.6096 0.43136 0.512 0.83456 1.0496 1.25184 1.57312a67.12832 67.12832 0 0 1 2.53312 3.36384c0.45824 0.65152 0.8896 1.32608 1.32608 1.99808a68.82304 68.82304 0 0 1 1.96736 3.2128c0.45568 0.80128 0.90112 1.6128 1.32608 2.432 0.50944 0.98048 0.9856 1.97632 1.4464 2.97984a67.4304 67.4304 0 0 1 1.28512 2.93632c0.34432 0.84992 0.6464 1.72416 0.95744 2.59328 0.41728 1.17248 0.83712 2.33984 1.18912 3.54432 0.18688 0.63488 0.33024 1.29024 0.50048 1.93408 0.3776 1.44384 0.75904 2.88768 1.04448 4.3712 0.81152 4.18688 1.26976 8.49024 1.26976 12.90624-0.00256 37.67168-30.85568 68.31872-68.77952 68.31872z m464.38912 0c-37.9264 0-68.77824-30.64704-68.77824-68.31744 0-4.3968 0.45824-8.68608 1.25824-12.85376a0.07424 0.07424 0 0 0 0.01152-0.03328c0.30208-1.58336 0.70656-3.12832 1.1136-4.66688 0.14592-0.52608 0.25728-1.06368 0.41472-1.58336 0.37504-1.27872 0.81664-2.52544 1.25824-3.76704 0.28672-0.7936 0.56448-1.59232 0.88064-2.37312a66.1248 66.1248 0 0 1 1.35552-3.09888c0.43648-0.9472 0.8832-1.89184 1.36448-2.81472 0.448-0.86784 0.91904-1.7216 1.40032-2.5664a71.2832 71.2832 0 0 1 1.88672-3.08096c0.45824-0.70784 0.91776-1.41568 1.39904-2.10432a65.79456 65.79456 0 0 1 2.4512-3.2576c0.44288-0.55808 0.86784-1.12512 1.32608-1.66912a68.6336 68.6336 0 0 1 3.19616-3.49312c0.34688-0.35968 0.67712-0.74368 1.0368-1.09312a67.30752 67.30752 0 0 1 4.70144-4.24832c0.01152-0.01024 0.02688-0.0192 0.0448-0.032a68.62208 68.62208 0 0 1 4.91392-3.6544c0.62592-0.42496 1.28128-0.80384 1.92-1.20576a70.06208 70.06208 0 0 1 3.36896-2.03776c0.79488-0.43904 1.6128-0.8384 2.42432-1.24928a67.77984 67.77984 0 0 1 3.17952-1.52448 65.5872 65.5872 0 0 1 2.67648-1.10464c1.0624-0.41984 2.144-0.81152 3.23456-1.1776a68.66048 68.66048 0 0 1 2.78784-0.88064c1.14176-0.3328 2.30528-0.61696 3.4816-0.89216 0.90112-0.20992 1.80096-0.43008 2.7136-0.60544 1.344-0.256 2.70848-0.4416 4.08064-0.61952 0.77312-0.10112 1.53344-0.23296 2.31808-0.3072a69.85088 69.85088 0 0 1 6.58304-0.33152c2.2208 0 4.416 0.12672 6.58432 0.33152 0.78208 0.07552 1.54368 0.20608 2.3168 0.3072 1.37088 0.1792 2.73792 0.36352 4.08064 0.61952 0.91264 0.17536 1.80864 0.39552 2.70976 0.60544 1.17504 0.2752 2.34496 0.56064 3.49696 0.89472a71.15136 71.15136 0 0 1 6.0288 2.0608c0.88832 0.34944 1.77408 0.70912 2.64576 1.0944 1.09696 0.48384 2.16576 1.00992 3.23456 1.55008 0.78976 0.39808 1.58464 0.78592 2.35648 1.21728 1.19296 0.66304 2.35136 1.3824 3.49824 2.112 0.59392 0.3776 1.20832 0.7296 1.79072 1.12256a69.68064 69.68064 0 0 1 9.73312 7.99488c0.26368 0.26368 0.50432 0.54912 0.768 0.81536a66.9056 66.9056 0 0 1 3.4752 3.80032c0.38656 0.45952 0.74496 0.93952 1.12 1.41056a64.92672 64.92672 0 0 1 2.67008 3.54432c0.41984 0.6016 0.81792 1.21728 1.21984 1.83296 0.72192 1.1136 1.4208 2.24768 2.08256 3.40352 0.41856 0.74112 0.83328 1.49376 1.23136 2.2528 0.54272 1.04576 1.05088 2.11456 1.55008 3.19616 0.40832 0.90112 0.81792 1.8048 1.19296 2.73152 0.38016 0.93312 0.7104 1.89184 1.05088 2.84672 0.38144 1.09184 0.77312 2.17984 1.10848 3.29856 0.21888 0.75008 0.39168 1.52064 0.58752 2.27712 0.34688 1.33888 0.70016 2.67008 0.96896 4.04096 0.81792 4.20352 1.27616 8.53248 1.27616 12.96896-0.00256 37.66656-30.85568 68.3136-68.78208 68.3136z m87.7312-94.83008c0-0.00896-0.0064-0.01792-0.01152-0.02816-0.33664-1.11104-0.7616-2.1824-1.14176-3.27424-0.544-1.55392-1.08672-3.104-1.7024-4.6144-0.41984-1.01888-0.8832-2.01216-1.3376-3.01184a90.61632 90.61632 0 0 0-2.26176-4.6656 82.62016 82.62016 0 0 0-1.39904-2.56896 91.20384 91.20384 0 0 0-3.04-4.97664c-0.41856-0.63488-0.81664-1.28128-1.248-1.90592a90.35008 90.35008 0 0 0-4.7424-6.30272c-0.04352-0.0576-0.0832-0.12032-0.13312-0.17536a91.56096 91.56096 0 0 0-5.68576-6.2272c-0.352-0.352-0.72704-0.67712-1.08672-1.024a91.3792 91.3792 0 0 0-4.89088-4.42368c-0.65536-0.55296-1.33248-1.07776-2.0032-1.6128a91.8848 91.8848 0 0 0-4.48896-3.34208c-0.77824-0.54272-1.55648-1.088-2.35648-1.60768a89.6256 89.6256 0 0 0-4.79744-2.9056c-0.76672-0.44032-1.5168-0.90496-2.29504-1.3184a91.79776 91.79776 0 0 0-7.16544-3.43936c-0.68224-0.28928-1.38752-0.51456-2.07104-0.78976a93.42976 93.42976 0 0 0-5.6256-2.05184c-1.01888-0.33024-2.05824-0.61056-3.10016-0.90368a91.75552 91.75552 0 0 0-5.00992-1.28768 104.49408 104.49408 0 0 0-3.22816-0.66688 88.50432 88.50432 0 0 0-5.52448-0.8384c-0.94464-0.11776-1.88032-0.25984-2.83136-0.34944-2.82752-0.2624-5.67168-0.43136-8.55424-0.43136s-5.72672 0.16896-8.55296 0.43136c-0.95104 0.0896-1.88672 0.23296-2.83264 0.34944-1.85728 0.22912-3.6992 0.49792-5.5232 0.8384a90.3936 90.3936 0 0 0-3.22432 0.66688 92.05248 92.05248 0 0 0-5.02656 1.29024c-1.03552 0.29312-2.07104 0.57088-3.08352 0.90112a92.18816 92.18816 0 0 0-5.67168 2.06592c-0.66688 0.26752-1.36064 0.48896-2.01984 0.77184a91.872 91.872 0 0 0-7.17568 3.44192c-0.77696 0.41344-1.52192 0.87936-2.28352 1.312a94.01984 94.01984 0 0 0-4.8128 2.91072c-0.79488 0.51968-1.568 1.0624-2.35136 1.60512a91.98208 91.98208 0 0 0-4.48896 3.3472c-0.67072 0.53248-1.34912 1.05728-2.0032 1.61024a91.77472 91.77472 0 0 0-4.86912 4.40704c-0.3712 0.35456-0.75776 0.68736-1.11616 1.04832a90.06208 90.06208 0 0 0-5.66912 6.20672c-0.07424 0.08448-0.1344 0.17536-0.20224 0.25728a90.46016 90.46016 0 0 0-4.66176 6.20288c-0.45952 0.66048-0.87936 1.34272-1.31584 2.01216a93.12512 93.12512 0 0 0-2.95552 4.832 98.96704 98.96704 0 0 0-1.47712 2.71488 89.63072 89.63072 0 0 0-2.15552 4.44928c-0.4928 1.07264-0.9856 2.13888-1.43232 3.232-0.55424 1.35552-1.03936 2.7456-1.52704 4.13568-0.43392 1.23136-0.91264 2.44224-1.29664 3.69792h-288.9344c-0.37248-1.21728-0.83584-2.3936-1.25568-3.58912-0.50432-1.43232-1.00224-2.86464-1.57056-4.26112-0.44544-1.08416-0.9344-2.13632-1.41824-3.19616a85.21088 85.21088 0 0 0-3.64672-7.18592 92.3776 92.3776 0 0 0-2.93248-4.8c-0.45056-0.6848-0.87936-1.38496-1.34656-2.05952a91.1744 91.1744 0 0 0-4.55424-6.0544c-0.1088-0.13312-0.2048-0.2752-0.31616-0.40576a91.4368 91.4368 0 0 0-5.63328-6.16832c-0.39168-0.39424-0.81408-0.7552-1.21472-1.14432a93.3888 93.3888 0 0 0-4.75648-4.30336c-0.68352-0.57472-1.38624-1.12256-2.08512-1.67808a94.15808 94.15808 0 0 0-4.39424-3.2704 90.72 90.72 0 0 0-2.43456-1.66528 90.93504 90.93504 0 0 0-4.69504-2.8416c-0.79744-0.45568-1.57312-0.93696-2.38464-1.37088a91.73248 91.73248 0 0 0-7.13472-3.42272c-0.70528-0.29952-1.44-0.5376-2.15424-0.82048a87.56992 87.56992 0 0 0-5.53856-2.01984c-1.03296-0.33664-2.08256-0.61824-3.13216-0.9152a91.99744 91.99744 0 0 0-4.9856-1.28 91.46112 91.46112 0 0 0-3.24352-0.66816 90.8416 90.8416 0 0 0-5.5104-0.8384c-0.94592-0.11776-1.88544-0.25984-2.84032-0.34944-2.82368-0.2624-5.66784-0.43136-8.5504-0.43136s-5.72672 0.16896-8.54912 0.43136c-0.95488 0.0896-1.89184 0.23296-2.84032 0.34944a95.35744 95.35744 0 0 0-5.51424 0.8384 91.19744 91.19744 0 0 0-8.23808 1.95072c-1.04064 0.29568-2.08512 0.576-3.11168 0.91008a91.39968 91.39968 0 0 0-5.59488 2.04032c-0.69376 0.27648-1.41056 0.5056-2.09664 0.8a90.57024 90.57024 0 0 0-7.15264 3.4304c-0.79488 0.42624-1.5552 0.896-2.336 1.344a93.30304 93.30304 0 0 0-4.75264 2.8736c-0.80896 0.53248-1.60128 1.08416-2.3936 1.63712a91.6736 91.6736 0 0 0-4.44416 3.30752c-0.68352 0.54272-1.37088 1.08032-2.04032 1.64224a93.92896 93.92896 0 0 0-4.82816 4.36608c-0.3776 0.36608-0.77824 0.71168-1.15072 1.08416a91.04 91.04 0 0 0-5.6576 6.19776c-0.08064 0.09472-0.14848 0.19584-0.22656 0.2944a90.84672 90.84672 0 0 0-4.64 6.16704c-0.45568 0.66048-0.87552 1.34016-1.31456 2.01216a89.42976 89.42976 0 0 0-2.96064 4.84352 84.81024 84.81024 0 0 0-1.46176 2.68672 90.9184 90.9184 0 0 0-2.18752 4.50816c-0.47872 1.04832-0.96256 2.09024-1.40288 3.15904-0.57344 1.41184-1.07776 2.8544-1.58336 4.30208-0.41728 1.18656-0.87936 2.35264-1.248 3.56224H146.6112c0.97664-36.15488 12.20736-148.57856 113.08032-169.04704h214.88384v53.47968a11.46368 11.46368 0 0 0 22.92608 0V608.4736h371.23072v31.8976h-60.43904a11.46368 11.46368 0 0 0 0 22.9248h60.43904v114.22464h-24.29312zM439.32032 204.40448c5.35424 3.37536 12.4288 1.76896 15.80928-3.58784 19.37152-30.74688 60.49408-50.61632 104.75776-50.61632 44.5568 0 85.79584 20.05376 105.06496 51.08992a11.456 11.456 0 0 0 15.78368 3.69408c5.37856-3.33824 7.03616-10.40512 3.69408-15.78368-23.71072-38.19648-71.43424-61.92512-124.54272-61.92512-52.7488 0-100.32512 23.49568-124.15872 61.32352-3.37024 5.35424-1.76384 12.43392 3.59168 15.80544z" fill="#ea9518" p-id="10327"></path><path d="M628.00896 241.17504c3.31008 5.39776 10.36928 7.08864 15.7632 3.77472 5.3952-3.31008 7.08608-10.36928 3.77472-15.7632-16.43008-26.78528-49.56928-43.42144-86.47936-43.42144-38.80832 0-73.696 18.70848-88.87936 47.65824a11.46368 11.46368 0 0 0 20.30464 10.64448c11.09376-21.16224 38.65216-35.3792 68.57216-35.3792 28.56064 0.00128 54.83648 12.75136 66.944 32.4864z" fill="#ea9518" p-id="10328"></path><path d="M561.29792 244.70656c-25.60384 0-48.8256 12.43392-59.15392 31.67744-2.9952 5.57696-0.89856 12.52608 4.6784 15.52a11.45728 11.45728 0 0 0 15.52128-4.6784c6.2912-11.71712 21.94432-19.59296 38.95424-19.59296 15.6544 0 29.91104 6.43072 37.21088 16.77952 3.64416 5.17376 10.79424 6.40512 15.97312 2.7648 5.17376-3.64928 6.41152-10.80192 2.7648-15.97312-11.52384-16.34432-32.96384-26.49728-55.9488-26.49728zM292.31872 763.90784c-22.12352 0-40.12032 17.99808-40.12032 40.11904 0 22.12224 17.99808 40.12032 40.12032 40.12032s40.1216-17.99808 40.1216-40.12032c-0.00128-22.12096-17.99936-40.11904-40.1216-40.11904z m0 57.31456c-9.48224 0-17.19552-7.712-17.19552-17.19552 0-9.48096 7.71328-17.19424 17.19552-17.19424s17.19424 7.712 17.19424 17.19424c0 9.48224-7.71328 17.19552-17.19424 17.19552zM756.70784 763.90784c-22.11968 0-40.1216 17.99808-40.1216 40.11904 0 22.12224 18.00064 40.12032 40.1216 40.12032s40.1216-17.99808 40.1216-40.12032c0-22.12096-18.00192-40.11904-40.1216-40.11904z m0 57.31456c-9.48096 0-17.19424-7.712-17.19424-17.19552 0-9.48096 7.712-17.19424 17.19424-17.19424 9.48224 0 17.19552 7.712 17.19552 17.19424 0 9.48224-7.71328 17.19552-17.19552 17.19552z" fill="#ea9518" p-id="10329"></path></svg>