<?xml version="1.0" standalone="no"?><!DOCTYPE svg PUBLIC "-//W3C//DTD SVG 1.1//EN" "http://www.w3.org/Graphics/SVG/1.1/DTD/svg11.dtd"><svg t="1578384092086" class="icon" viewBox="0 0 1024 1024" version="1.1" xmlns="http://www.w3.org/2000/svg" p-id="15822" xmlns:xlink="http://www.w3.org/1999/xlink" width="400" height="400"><defs><style type="text/css"></style></defs><path d="M674.956369 278.435955h262.328089v745.564045h-262.328089z" fill="#B3B3B3" p-id="15823"></path><path d="M674.956369 278.435955h262.328089v21.469483h-262.328089z" fill="#999999" p-id="15824"></path><path d="M50.587901 299.146067h595.919677v48.323596H50.587901zM978.704683 57.673061L806.120413 0l-172.584269 57.673061v48.323595h345.168539z" fill="#CCCCCC" p-id="15825"></path><path d="M674.956369 105.994355h262.328089V230.11236h-262.328089z" fill="#CCCCCC" p-id="15826"></path><path d="M716.951874 124.260674h66.732584v87.587668h-66.732584zM828.556369 124.260674h66.732584v87.587668h-66.732584z" fill="#2D4151" p-id="15827"></path><path d="M68.150076 347.469663h560.783821v135.766292h-560.783821z" fill="#B3B3B3" p-id="15828"></path><path d="M633.536144 57.67076h345.168539v48.323595h-345.168539zM633.536144 230.11236v48.323595h74.211236v71.334832h21.860674v-71.334832h65.582022v71.334832h21.860675v-71.334832h65.582022v71.334832h21.860674v-71.334832h74.211236v-48.323595z" fill="#808080" p-id="15829"></path><path d="M674.956369 105.361546h262.328089v12.628566h-262.328089zM806.120413 0v57.673061h172.58427z" fill="#B3B3B3" p-id="15830"></path><path d="M125.146607 410.366274h89.74382v110.598904h-89.74382z" fill="#999999" p-id="15831"></path><path d="M136.652225 421.871892h66.732584v87.587668h-66.732584z" fill="#2D4151" p-id="15832"></path><path d="M244.165321 410.366274h89.743821v110.598904h-89.743821z" fill="#999999" p-id="15833"></path><path d="M255.670939 421.871892h66.732585v87.587668h-66.732585z" fill="#2D4151" p-id="15834"></path><path d="M363.184036 410.366274h89.74382v110.598904h-89.74382z" fill="#999999" p-id="15835"></path><path d="M374.689654 421.871892h66.732584v87.587668h-66.732584z" fill="#2D4151" p-id="15836"></path><path d="M482.205052 410.366274h89.74382v110.598904h-89.74382z" fill="#999999" p-id="15837"></path><path d="M493.71067 421.871892h66.732584v87.587668h-66.732584z" fill="#2D4151" p-id="15838"></path><path d="M45.295317 483.235955h832.861771v540.764045H45.295317z" fill="#CCCCCC" p-id="15839"></path><path d="M68.150076 347.469663h560.783821v21.101303h-560.783821z" fill="#999999" p-id="15840"></path><path d="M99.054166 684.199982h314.487659V1024H99.054166z" fill="#808080" p-id="15841"></path><path d="M110.559784 695.7056h291.476423V1024H110.559784z" fill="#999999" p-id="15842"></path><path d="M240.573267 684.199982h11.505618V1024h-11.505618zM260.517106 684.199982h11.505618V1024h-11.505618z" fill="#808080" p-id="15843"></path><path d="M117.900369 553.802211h53.692116v88.977546H117.900369z" fill="#999999" p-id="15844"></path><path d="M129.405987 565.31013h30.68088v65.96631H129.405987z" fill="#2D4151" p-id="15845"></path><path d="M299.031011 553.802211h53.692117v88.977546H299.031011z" fill="#999999" p-id="15846"></path><path d="M310.536629 565.31013h30.680881v65.96631H310.536629z" fill="#2D4151" p-id="15847"></path><path d="M661.292297 553.802211h53.692116v88.977546h-53.692116z" fill="#999999" p-id="15848"></path><path d="M672.797915 565.31013h30.680881v65.96631h-30.680881z" fill="#2D4151" p-id="15849"></path><path d="M208.46569 553.802211h53.694418v88.977546H208.46569z" fill="#999999" p-id="15850"></path><path d="M219.971308 565.31013h30.680881v65.96631H219.971308z" fill="#2D4151" p-id="15851"></path><path d="M570.726975 553.802211h53.692117v88.977546h-53.692117z" fill="#999999" p-id="15852"></path><path d="M582.232593 565.31013h30.680881v65.96631h-30.680881z" fill="#2D4151" p-id="15853"></path><path d="M480.161654 553.802211h53.692117v88.977546h-53.692117z" fill="#999999" p-id="15854"></path><path d="M491.667272 565.31013h30.680881v65.96631h-30.680881z" fill="#2D4151" p-id="15855"></path><path d="M389.596333 553.802211h53.692116v88.977546h-53.692116z" fill="#999999" p-id="15856"></path><path d="M401.101951 565.31013h30.68088v65.96631h-30.68088z" fill="#2D4151" p-id="15857"></path><path d="M751.855317 553.802211h53.692117v88.977546h-53.692117z" fill="#999999" p-id="15858"></path><path d="M763.360935 565.31013h30.680881v65.96631h-30.680881z" fill="#2D4151" p-id="15859"></path><path d="M208.405861 443.829213v-5.752809H172.894921V419.955056h-5.752809v18.121348H131.633474v5.752809h35.508638v17.546068H131.633474v5.752809h35.508638v16.107865h5.752809v-16.107865h35.51094v-5.752809H172.894921v-17.546068zM446.44329 443.829213v-5.752809h-35.510939V419.955056h-5.752809v18.121348h-35.508639v5.752809h35.508639v17.546068h-35.508639v5.752809h35.508639v16.107865h5.752809v-16.107865h35.510939v-5.752809h-35.510939v-17.546068zM565.462004 443.829213v-5.752809h-35.508638V419.955056h-5.752809v18.121348H488.689618v5.752809h35.510939v17.546068H488.689618v5.752809h35.510939v16.107865h5.752809v-16.107865h35.508638v-5.752809h-35.508638v-17.546068zM327.424575 443.829213v-5.752809h-35.510939V419.955056h-5.752809v18.121348h-35.508638v5.752809h35.508638v17.546068h-35.508638v5.752809h35.508638v16.107865h5.752809v-16.107865h35.510939v-5.752809h-35.510939v-17.546068z" fill="#999999" p-id="15860"></path><path d="M296.805825 886.698858h75.170804V1024h-75.170804z" fill="#808080" p-id="15861"></path><path d="M308.311443 898.204476h52.157267V1024h-52.157267z" fill="#999999" p-id="15862"></path><path d="M743.990076 768.575281h41.420225v13.806741h-41.420225zM721.747416 786.217996h41.420224v13.806741h-41.420224zM697.20133 768.575281h41.420225v13.806741h-41.420225z" fill="#B3B3B3" p-id="15863"></path><path d="M744.758652 436.062921h41.420224v13.806742h-41.420224zM722.51369 453.705636h41.420225v13.806742h-41.420225zM697.967604 436.062921h41.420225v13.806742h-41.420225z" fill="#CCCCCC" p-id="15864"></path><path d="M883.592342 386.204476h41.420224v13.806742h-41.420224zM861.34738 403.847191h41.420224v13.806742h-41.420224zM836.803596 386.204476h41.420224v13.806742h-41.420224z" fill="#CCCCCC" p-id="15865"></path><path d="M107.347416 502.795506h41.420224v13.806741h-41.420224zM85.102454 520.43822h41.420225v13.806742h-41.420225zM60.556369 502.795506h41.420224v13.806741h-41.420224z" fill="#B3B3B3" p-id="15866"></path><path d="M551.46427 916.613465h41.420224v13.806742h-41.420224zM529.219308 934.25618h41.420225v13.806741h-41.420225zM504.673222 916.613465h41.420225v13.806742h-41.420225z" fill="#B3B3B3" p-id="15867"></path><path d="M811.491236 972.609007h41.420225v13.806741h-41.420225zM789.246274 990.24942h41.420225v13.806742h-41.420225zM764.700189 972.609007h41.420224v13.806741h-41.420224z" fill="#B3B3B3" p-id="15868"></path></svg>