<?xml version="1.0" standalone="no"?><!DOCTYPE svg PUBLIC "-//W3C//DTD SVG 1.1//EN" "http://www.w3.org/Graphics/SVG/1.1/DTD/svg11.dtd"><svg t="1606985808017" class="icon" viewBox="0 0 1024 1024" version="1.1" xmlns="http://www.w3.org/2000/svg" p-id="556" width="400" height="400" xmlns:xlink="http://www.w3.org/1999/xlink"><defs><style type="text/css"></style></defs><path d="M675.072 320.224l-119.072 175.52 94.24 0 0 38.72-110.624 0 0 53.856 110.624 0 0 39.008-110.624 0 0 77.44-60.48 0 0-77.44-114.048 0 0-39.008 114.048 0 0-53.856-114.048 0 0-38.72 96.096 0-117.472-175.52 69.12 0 82.144 136.768c4.544 7.616 9.696 17.312 15.488 29.056l1.248 0c4.128-9.44 9.504-19.52 16.096-30.272l82.432-135.552L675.072 320.224z" p-id="557" fill="#f4ea2a"></path><path d="M101.44 448C132.384 248.96 304.448 96 512 96s379.616 152.96 410.56 352l64.704 0C955.872 213.248 755.328 32 512 32S68.128 213.248 36.768 448L101.44 448z" p-id="558" fill="#f4ea2a"></path><path d="M922.56 576C891.616 775.04 719.552 928 512 928S132.384 775.04 101.44 576L36.768 576C68.128 810.752 268.672 992 512 992s443.872-181.248 475.232-416L922.56 576z" p-id="559" fill="#f4ea2a"></path><path d="M100.992 576.736 36.768 576.736 36.768 832.736 100.992 832.736 100.992 576.736Z" p-id="560" fill="#f4ea2a"></path><path d="M987.232 192.224 923.008 192.224 923.008 448.224 987.232 448.224 987.232 192.224Z" p-id="561" fill="#f4ea2a"></path></svg>